<svg width="24" height="25" viewBox="0 0 24 25" fill="none" xmlns="http://www.w3.org/2000/svg">
<g id="Iconly/Bulk/Bookmark">
<g id="Bookmark">
<path id="Bookmark 2" opacity="0.4" d="M11.9912 18.6347L5.49945 21.8773C5.00921 22.1434 4.39768 21.9657 4.12348 21.4775C4.0434 21.324 4.00106 21.1534 4 20.98V13.722C4 14.4415 4.40573 14.8857 5.47299 15.3832L11.9912 18.6347Z" fill="#8A92A6"/>
<path id="Bookmark_2" fill-rule="evenodd" clip-rule="evenodd" d="M8.89526 2.01315H15.0695C17.7773 2.01315 19.9735 3.07921 20 5.80652V20.98C19.9989 21.1506 19.9565 21.3183 19.8765 21.4686C19.7479 21.7138 19.5259 21.8958 19.2615 21.9729C18.997 22.05 18.7128 22.0154 18.4741 21.8773L11.9912 18.6347L5.47299 15.3832C4.40573 14.8857 4 14.4415 4 13.722V5.80652C4 3.07921 6.19625 2.01315 8.89526 2.01315ZM8.22492 9.63542H15.7486C16.1822 9.63542 16.5336 9.28144 16.5336 8.84477C16.5336 8.4081 16.1822 8.05411 15.7486 8.05411H8.22492C7.79137 8.05411 7.43991 8.4081 7.43991 8.84477C7.43991 9.28144 7.79137 9.63542 8.22492 9.63542Z" fill="#8A92A6"/>
</g>
</g>
</svg>
