<svg width="24" height="25" viewBox="0 0 24 25" fill="none" xmlns="http://www.w3.org/2000/svg">
<g id="Iconly/Bulk/Category">
<g id="Category">
<path id="Fill 1" opacity="0.4" d="M16.0755 2.01315H19.4615C20.8637 2.01315 22 3.159 22 4.57312V7.98768C22 9.40179 20.8637 10.5476 19.4615 10.5476H16.0755C14.6732 10.5476 13.537 9.40179 13.537 7.98768V4.57312C13.537 3.159 14.6732 2.01315 16.0755 2.01315Z" fill="white"/>
<path id="Combined Shape" fill-rule="evenodd" clip-rule="evenodd" d="M4.53852 2.01315H7.92449C9.32676 2.01315 10.463 3.159 10.463 4.57312V7.98768C10.463 9.40179 9.32676 10.5476 7.92449 10.5476H4.53852C3.13626 10.5476 2 9.40179 2 7.98768V4.57312C2 3.159 3.13626 2.01315 4.53852 2.01315ZM4.53852 13.4787H7.92449C9.32676 13.4787 10.463 14.6245 10.463 16.0386V19.4532C10.463 20.8663 9.32676 22.0132 7.92449 22.0132H4.53852C3.13626 22.0132 2 20.8663 2 19.4532V16.0386C2 14.6245 3.13626 13.4787 4.53852 13.4787ZM19.4615 13.4787H16.0755C14.6732 13.4787 13.537 14.6245 13.537 16.0386V19.4532C13.537 20.8663 14.6732 22.0132 16.0755 22.0132H19.4615C20.8637 22.0132 22 20.8663 22 19.4532V16.0386C22 14.6245 20.8637 13.4787 19.4615 13.4787Z" fill="white"/>
</g>
</g>
</svg>
