<svg width="24" height="25" viewBox="0 0 24 25" fill="none" xmlns="http://www.w3.org/2000/svg">
<g id="Iconly/Bulk/Document">
<g id="Document">
<path id="Path" opacity="0.4" d="M16.191 2.01315H7.81C4.77 2.01315 3 3.79315 3 6.84315V17.1732C3 20.2732 4.77 22.0132 7.81 22.0132H16.191C19.28 22.0132 21 20.2732 21 17.1732V6.84315C21 3.79315 19.28 2.01315 16.191 2.01315Z" fill="#8A92A6"/>
<path id="Combined Shape" fill-rule="evenodd" clip-rule="evenodd" d="M8.08002 6.66315V6.67315C7.64902 6.67315 7.30002 7.02315 7.30002 7.45315C7.30002 7.88315 7.64902 8.23315 8.08002 8.23315H11.069C11.5 8.23315 11.85 7.88315 11.85 7.44215C11.85 7.01315 11.5 6.66315 11.069 6.66315H8.08002ZM15.92 12.7531H8.08002C7.64902 12.7531 7.30002 12.4031 7.30002 11.9731C7.30002 11.5431 7.64902 11.1921 8.08002 11.1921H15.92C16.35 11.1921 16.7 11.5431 16.7 11.9731C16.7 12.4031 16.35 12.7531 15.92 12.7531ZM15.92 17.3231H8.08002C7.78002 17.3631 7.49002 17.2131 7.33002 16.9631C7.17002 16.7031 7.17002 16.3731 7.33002 16.1231C7.49002 15.8631 7.78002 15.7231 8.08002 15.7531H15.92C16.319 15.7931 16.62 16.1331 16.62 16.5431C16.62 16.9421 16.319 17.2831 15.92 17.3231Z" fill="#8A92A6"/>
</g>
</g>
</svg>
