<svg width="24" height="25" viewBox="0 0 24 25" fill="none" xmlns="http://www.w3.org/2000/svg">
<g id="Iconly/Bulk/Filter">
<g id="Filter">
<path id="Fill 1" opacity="0.4" d="M10.0833 15.9711H3.50777C2.67555 15.9711 2 16.6348 2 17.4524C2 18.269 2.67555 18.9338 3.50777 18.9338H10.0833C10.9155 18.9338 11.5911 18.269 11.5911 17.4524C11.5911 16.6348 10.9155 15.9711 10.0833 15.9711Z" fill="#8A92A6"/>
<path id="Fill 4" opacity="0.4" d="M22 6.3917C22 5.57517 21.3244 4.91147 20.4933 4.91147H13.9178C13.0856 4.91147 12.41 5.57517 12.41 6.3917C12.41 7.20933 13.0856 7.87303 13.9178 7.87303H20.4933C21.3244 7.87303 22 7.20933 22 6.3917Z" fill="#8A92A6"/>
<path id="Fill 6" d="M8.87774 6.39171C8.87774 8.25838 7.33886 9.77137 5.43887 9.77137C3.53999 9.77137 2 8.25838 2 6.39171C2 4.52614 3.53999 3.01315 5.43887 3.01315C7.33886 3.01315 8.87774 4.52614 8.87774 6.39171Z" fill="#8A92A6"/>
<path id="Fill 9" d="M22 17.4124C22 19.2779 20.4611 20.7909 18.5611 20.7909C16.6622 20.7909 15.1223 19.2779 15.1223 17.4124C15.1223 15.5457 16.6622 14.0327 18.5611 14.0327C20.4611 14.0327 22 15.5457 22 17.4124Z" fill="#8A92A6"/>
</g>
</g>
</svg>
