<svg width="138" height="23" viewBox="0 0 138 23" fill="none" xmlns="http://www.w3.org/2000/svg">
<path d="M9.05 5.35H8.75C7.85 4.3 7.25 3.7 6.05 3.7C4.85 3.7 3.95 4.6 3.95 5.95C3.95 8.95 13.1 8.8 13.1 15.7C13.1 19.45 10.1 22.45 6.35 22.45C3.35 22.45 1.1 20.8 0.05 18.1L2.3 16.3H2.6C3.5 18.25 4.55 19.3 6.35 19.3C8.3 19.3 9.65 17.8 9.65 15.7C9.65 11.5 0.5 11.8 0.5 5.95C0.5 2.95 2.93 0.549999 6.05 0.549999C8.45 0.549999 10.25 1.9 11.3 3.7L9.05 5.35ZM28.393 12.1L28.243 12.25C26.743 10.9 25.243 10.3 23.593 10.3C20.743 10.3 18.943 12.37 18.943 14.95C18.943 17.53 20.743 19.6 23.593 19.6C25.243 19.6 26.743 19 28.243 17.65L28.393 17.8V20.95C27.193 21.85 25.543 22.45 23.593 22.45C18.943 22.45 15.793 19.09 15.793 14.95C15.793 10.81 18.943 7.45 23.593 7.45C25.543 7.45 27.193 8.05 28.393 8.95V12.1ZM38.5859 7.45C42.7859 7.45 46.0859 10.75 46.0859 14.95C46.0859 19.15 42.7859 22.45 38.5859 22.45C34.3859 22.45 31.0859 19.15 31.0859 14.95C31.0859 10.75 34.3859 7.45 38.5859 7.45ZM38.5859 10.3C36.0359 10.3 34.2359 12.25 34.2359 14.95C34.2359 17.65 36.0359 19.6 38.5859 19.6C41.1359 19.6 42.9359 17.65 42.9359 14.95C42.9359 12.25 41.1359 10.3 38.5859 10.3ZM50.1242 7.9H52.8242L52.9742 8.05V8.5C54.0242 7.9 55.3742 7.45 56.7242 7.45C57.6242 7.45 58.5242 7.6 59.4242 8.05L59.5742 11.05L59.4242 11.2C58.5242 10.45 57.4742 10.3 56.7242 10.3C55.2242 10.3 53.7242 10.9 52.9742 11.8V21.85L52.8242 22H50.1242L49.9742 21.85V8.05L50.1242 7.9ZM75.1719 17.35V20.5C73.8219 21.4 71.7219 22.45 69.4719 22.45C65.1219 22.45 61.6719 19 61.6719 14.83C61.6719 10.75 64.5219 7.45 68.8719 7.45C72.6219 7.45 75.1719 10.75 75.1719 14.8C75.1719 14.95 75.1719 15.22 75.0219 15.55L74.7219 15.7H64.7319C65.1219 17.95 66.9219 19.6 69.4719 19.6C71.4219 19.6 73.5219 18.7 75.0219 17.2L75.1719 17.35ZM64.8519 13.3H72.1719C72.0219 11.65 70.5219 10.3 68.8719 10.3C66.7719 10.3 65.2719 11.65 64.8519 13.3ZM78.923 0.999999H91.523L91.673 1.15V3.85L91.523 4H81.773V8.95H89.123L89.273 9.1V11.8L89.123 11.95H81.773V19H92.423L92.573 19.15V21.85L92.423 22H78.923L78.773 21.85V1.15L78.923 0.999999ZM95.7254 11.8L97.0754 8.35C97.9754 7.9 99.1754 7.45 100.825 7.45C104.125 7.45 106.375 9.4 106.375 13.45V21.85L106.225 22H103.525L103.375 21.85V21.4C102.325 22.15 100.855 22.45 99.9254 22.45C97.3754 22.45 94.9754 21.25 94.9754 18.4C94.9754 14.2 99.3254 13.15 103.375 12.85C103.375 11.2 102.325 10.3 100.675 10.3C99.0254 10.3 97.6754 10.75 95.8754 11.95L95.7254 11.8ZM103.375 18.7V15.4C100.225 15.55 98.1254 16.6 98.1254 18.1C98.1254 19.15 98.8754 19.6 100.225 19.6C101.275 19.6 102.325 19.3 103.375 18.7ZM119.882 11.65L119.732 11.8C118.232 10.75 116.732 10.3 115.232 10.3C113.882 10.3 113.132 10.9 113.132 11.65C113.132 14.2 121.382 12.1 121.382 17.95C121.382 20.5 119.132 22.45 115.532 22.45C113.732 22.45 111.482 22 110.132 21.1V18.1L110.282 17.95C111.932 19 113.882 19.6 115.532 19.6C117.632 19.6 118.232 19 118.232 17.95C118.232 15.1 109.982 17.2 109.982 11.65C109.982 9.25 112.082 7.45 115.232 7.45C117.032 7.45 118.682 7.9 119.882 8.65V11.65ZM137.574 17.35V20.5C136.224 21.4 134.124 22.45 131.874 22.45C127.524 22.45 124.074 19 124.074 14.83C124.074 10.75 126.924 7.45 131.274 7.45C135.024 7.45 137.574 10.75 137.574 14.8C137.574 14.95 137.574 15.22 137.424 15.55L137.124 15.7H127.134C127.524 17.95 129.324 19.6 131.874 19.6C133.824 19.6 135.924 18.7 137.424 17.2L137.574 17.35ZM127.254 13.3H134.574C134.424 11.65 132.924 10.3 131.274 10.3C129.174 10.3 127.674 11.65 127.254 13.3Z" fill="#232D42"/>
</svg>
