<svg width="29" height="29" viewBox="0 0 29 29" fill="none" xmlns="http://www.w3.org/2000/svg">
<path fill-rule="evenodd" clip-rule="evenodd" d="M19.5979 3.5763C19.7579 3.71934 19.9133 3.86561 20.0649 4.01703C20.7127 4.66268 21.2747 5.37609 21.7491 6.15789C22.2241 6.94034 22.5979 7.76733 22.8718 8.64017L22.8957 8.6163L28.1314 28.1106L20.6885 26.1204L16.6321 11.0184C16.6096 10.9239 16.5841 10.83 16.5558 10.7369C16.5118 10.5912 16.4595 10.4475 16.4014 10.3069C16.3426 10.1658 16.2774 10.0272 16.2051 9.89313C16.1335 9.75842 16.0554 9.62758 15.9696 9.50062C15.885 9.37365 15.794 9.25185 15.6973 9.13327C15.5998 9.01534 15.4972 8.90257 15.3895 8.79496C15.2811 8.68671 15.1682 8.58426 15.0502 8.48826C14.9321 8.39098 14.8096 8.30079 14.6831 8.21576C14.5561 8.13137 14.4245 8.05279 14.2903 7.98066C14.1555 7.90917 14.0182 7.84414 13.8763 7.78619C13.735 7.72761 13.5919 7.67611 13.4461 7.63236C13.2997 7.58796 13.1521 7.5513 13.0025 7.52173C12.8522 7.49152 12.7013 7.46969 12.5498 7.45495C12.3976 7.43957 12.2461 7.43257 12.0927 7.43266C11.9405 7.43276 11.7883 7.44059 11.6368 7.45551C11.484 7.47043 11.3338 7.49309 11.1843 7.52284C11.034 7.55324 10.8864 7.59008 10.7401 7.63465C10.5944 7.67859 10.4513 7.73025 10.3101 7.78901C10.169 7.84777 10.031 7.91233 9.89696 7.98463C9.76225 8.05628 9.63141 8.13566 9.50444 8.2202C9.37748 8.30474 9.25567 8.39573 9.1371 8.49252C9.01981 8.5893 8.90704 8.69189 8.79879 8.80027C8.69118 8.90801 8.58873 9.02091 8.49209 9.1396C8.39545 9.25701 8.30461 9.38021 8.21958 9.50663C8.1352 9.6337 8.05662 9.76399 7.98513 9.89879C7.913 10.0342 7.84796 10.1716 7.78938 10.3128C7.73143 10.4534 7.68059 10.5972 7.63619 10.7436C7.59114 10.8894 7.55448 11.0371 7.52491 11.1867C7.49535 11.3363 7.47287 11.4878 7.45814 11.6393C7.4434 11.7908 7.4364 11.9437 7.43585 12.0965C7.43594 12.2486 7.44377 12.4008 7.45934 12.5529C7.47362 12.7051 7.49628 12.8553 7.52602 13.0049C7.55642 13.1551 7.59326 13.3027 7.63784 13.449C7.68177 13.5947 7.73344 13.7378 7.7922 13.879C7.85031 14.0208 7.91552 14.1581 7.98781 14.2922C8.05946 14.4269 8.1382 14.5584 8.22339 14.6847C8.30793 14.8117 8.39827 14.9341 8.4957 15.052C8.59249 15.1693 8.69443 15.2827 8.80281 15.391C8.91055 15.4986 9.02409 15.6004 9.14214 15.6977C9.25955 15.7943 9.38275 15.8852 9.50918 15.9702C9.63625 16.0546 9.76718 16.1325 9.90133 16.2046C10.0361 16.2761 10.1742 16.3418 10.3154 16.4004C10.456 16.4583 10.5998 16.5092 10.7462 16.5536C10.8919 16.5986 11.0396 16.6353 11.1892 16.6649C11.3388 16.6944 11.4903 16.7169 11.6419 16.7316C11.7934 16.7464 11.9456 16.754 12.099 16.7539C12.2512 16.7538 12.4033 16.746 12.5555 16.7317C12.7076 16.7162 12.8578 16.6935 13.0081 16.6644C13.1576 16.6346 13.3059 16.5972 13.4509 16.5526C13.5973 16.508 13.741 16.457 13.8822 16.3982C14.0227 16.3401 14.1606 16.2743 14.2954 16.2026C14.4301 16.131 14.5603 16.0522 14.6872 15.9677C14.8142 15.8831 14.9366 15.7915 15.0546 15.6954C15.1725 15.5979 15.2853 15.4954 15.3935 15.3883C15.5018 15.2799 15.6036 15.1663 15.7002 15.0489C15.7692 14.9653 15.8349 14.879 15.8976 14.7908L18.8055 25.6169L8.63267 22.8967L8.65586 22.8735C8.45208 22.8091 8.24959 22.7396 8.04902 22.6643C7.84845 22.589 7.65046 22.5072 7.4544 22.421C7.25899 22.334 7.06551 22.2426 6.8746 22.1447C6.68369 22.0468 6.49665 21.9438 6.31154 21.8362C6.12642 21.7274 5.94518 21.6146 5.76651 21.4955C5.58848 21.3769 5.41368 21.2539 5.24209 21.1251C5.07115 20.9969 4.90279 20.8635 4.73894 20.7256C4.57509 20.5877 4.41574 20.4453 4.25962 20.2984C4.10414 20.1509 3.95318 20.0001 3.80543 19.8448C3.65833 19.6889 3.51575 19.5297 3.37767 19.366C3.23959 19.2023 3.10538 19.0348 2.97697 18.864C2.84791 18.6926 2.72465 18.5179 2.60527 18.3394C2.48652 18.1615 2.37293 17.9797 2.2645 17.7954C2.15607 17.6111 2.05279 17.4229 1.95532 17.2327C1.8572 17.0419 1.76488 16.8492 1.67772 16.6539C1.59056 16.4573 1.5092 16.2601 1.43364 16.0596C1.35808 15.8591 1.28767 15.6561 1.22307 15.4523C1.15912 15.248 1.10032 15.0424 1.04797 14.8341C0.995616 14.6272 0.948421 14.4177 0.907673 14.2082C0.866925 13.9973 0.831978 13.7859 0.80348 13.5744C0.774336 13.3623 0.751639 13.1489 0.7341 12.9355C0.717851 12.7221 0.707404 12.5081 0.702115 12.294C0.698116 12.0799 0.699275 11.8659 0.706881 11.6518C0.713843 11.4384 0.727252 11.2237 0.746465 11.0109C0.766322 10.7975 0.791982 10.5847 0.823447 10.3738C0.85491 10.1617 0.892822 9.95083 0.935893 9.74126C0.979608 9.53104 1.02913 9.32275 1.08381 9.11575C1.13913 8.90939 1.20025 8.70368 1.26783 8.50054C1.33412 8.2974 1.40685 8.09555 1.48474 7.89627C1.56393 7.69699 1.64763 7.49964 1.73713 7.30552C1.82599 7.11075 1.92129 6.91855 2.02112 6.72957C2.12223 6.5406 2.22721 6.3542 2.338 6.17102C2.44878 5.98784 2.56537 5.80788 2.68648 5.63115C2.80759 5.45441 2.93321 5.28089 3.06464 5.11188C3.19542 4.94223 3.33007 4.77645 3.47117 4.61453C3.61099 4.45261 3.75532 4.2952 3.90481 4.14166C4.0543 3.98811 4.20766 3.83843 4.36554 3.69327C4.52277 3.54875 4.68387 3.40809 4.85014 3.27259C5.01576 3.13644 5.18525 3.00546 5.35797 2.87898C5.53068 2.7525 5.70727 2.63118 5.88709 2.51566C6.06691 2.39885 6.24995 2.28784 6.43622 2.18263C6.62249 2.07613 6.81134 1.97607 7.00342 1.88053C7.19486 1.78564 7.38952 1.69525 7.58677 1.61131C7.78337 1.52673 7.98255 1.44859 8.18367 1.37626C8.38543 1.30328 8.58849 1.23545 8.79349 1.17472C8.99913 1.11334 9.20542 1.05777 9.41364 1.00799C9.62187 0.958221 9.83203 0.91425 10.0428 0.87608C10.253 0.838556 10.4651 0.806834 10.6779 0.780914C10.8906 0.754993 11.1034 0.73552 11.3174 0.721205C11.5308 0.707536 11.7449 0.699667 11.959 0.698248C12.173 0.696828 12.3877 0.70121 12.6011 0.712041C12.8152 0.722225 13.0286 0.738215 13.2414 0.761297C13.4548 0.783732 13.667 0.812618 13.8778 0.846662C14.0893 0.881349 14.2996 0.922485 14.5085 0.96878C14.7174 1.01508 14.9251 1.06782 15.1314 1.12572C15.3378 1.18362 15.5416 1.24798 15.7441 1.31749C15.9472 1.38764 16.1465 1.46296 16.3451 1.54407C16.5438 1.62519 16.7392 1.71211 16.932 1.8042C17.1261 1.89628 17.3164 1.99352 17.5041 2.09721C17.6918 2.19962 17.8769 2.30847 18.0588 2.42183C18.2394 2.5352 18.4187 2.65373 18.5929 2.77741C18.7683 2.9011 18.9392 3.0293 19.107 3.16202C19.2747 3.29603 19.4385 3.43391 19.5979 3.5763Z" fill="#8084FE"/>
</svg>
