<svg width="232" height="454" viewBox="0 0 232 454" fill="none" xmlns="http://www.w3.org/2000/svg">
<path fill-rule="evenodd" clip-rule="evenodd" d="M98.3166 49.5184C100.898 51.9051 103.405 54.3434 105.846 56.8652C116.279 67.618 125.29 79.457 132.846 92.3924C140.412 105.339 146.309 118.987 150.557 133.358L150.954 132.974L231.378 453.714L110.016 419.08L47.6684 170.456C47.3344 168.952 46.9536 167.457 46.5286 165.973C45.8489 163.575 45.0314 161.206 44.1179 158.889C43.1941 156.56 42.164 154.273 41.0166 152.057C39.8798 149.831 38.6364 147.666 37.2653 145.563C35.9153 143.46 34.4584 141.44 32.9055 139.472C31.3419 137.513 29.6925 135.638 27.9572 133.846C26.2115 132.043 24.3903 130.334 22.483 128.73C20.5761 127.104 18.5933 125.593 16.5458 124.166C14.4875 122.749 12.3538 121.426 10.1762 120.207C7.98782 119 5.75551 117.897 3.44741 116.909C1.15001 115.911 -1.18091 115.028 -3.55613 114.271C-5.94174 113.504 -8.35051 112.863 -10.7928 112.338C-13.2455 111.802 -15.711 111.403 -18.1889 111.12C-20.6772 110.827 -23.1572 110.671 -25.6707 110.63C-28.1631 110.59 -30.6575 110.677 -33.1432 110.879C-35.6501 111.082 -38.1168 111.412 -40.5747 111.858C-43.0434 112.315 -45.4716 112.878 -47.8806 113.568C-50.279 114.248 -52.6371 115.055 -54.9654 115.979C-57.2937 116.903 -59.5708 117.923 -61.7865 119.07C-64.0126 120.207 -66.1774 121.471 -68.2802 122.821C-70.3829 124.171 -72.4029 125.628 -74.3716 127.181C-76.3192 128.734 -78.1944 130.384 -79.9972 132.129C-81.7893 133.865 -83.4982 135.686 -85.1136 137.604C-86.7287 139.5 -88.2503 141.493 -89.6777 143.541C-91.0946 145.599 -92.4174 147.712 -93.6252 149.9C-94.8437 152.099 -95.9466 154.331 -96.9449 156.628C-97.9324 158.915 -98.8046 161.257 -99.5719 163.643C-100.35 166.018 -100.991 168.426 -101.516 170.869C-102.041 173.311 -102.451 175.787 -102.733 178.265C-103.016 180.743 -103.173 183.244 -103.224 185.747C-103.264 188.239 -103.177 190.733 -102.964 193.23C-102.772 195.726 -102.442 198.193 -101.995 200.651C-101.538 203.119 -100.975 205.547 -100.285 207.956C-99.6055 210.355 -98.7984 212.713 -97.8746 215.041C-96.9615 217.38 -95.931 219.647 -94.7836 221.862C-93.6468 224.088 -92.3931 226.264 -91.0323 228.356C-89.6823 230.459 -88.2361 232.489 -86.6725 234.447C-85.1193 236.395 -83.4806 238.281 -81.7349 240.083C-79.9996 241.876 -78.1677 243.574 -76.2608 245.2C-74.3642 246.815 -72.371 248.337 -70.3235 249.764C-68.2653 251.181 -66.142 252.493 -63.9643 253.711C-61.7759 254.919 -59.5332 256.033 -57.2359 257.031C-54.9489 258.019 -52.6072 258.891 -50.2216 259.658C-47.8467 260.436 -45.438 261.077 -42.9956 261.602C-40.5533 262.127 -38.0774 262.537 -35.5995 262.82C-33.1216 263.103 -30.6313 263.269 -28.1178 263.31C-25.6254 263.35 -23.131 263.263 -20.6348 263.071C-18.1384 262.858 -15.6717 262.528 -13.2034 262.092C-10.7454 261.646 -8.30654 261.072 -5.91859 260.382C-3.50953 259.692 -1.141 258.895 1.18732 257.972C3.50491 257.058 5.78229 256.017 8.0084 254.881C10.2345 253.744 12.3886 252.49 14.4913 251.14C16.5941 249.79 18.6248 248.322 20.5828 246.78C22.5411 245.216 24.4163 243.567 26.2188 241.842C28.0216 240.097 29.7201 238.265 31.3352 236.368C32.4888 235.015 33.5899 233.619 34.6421 232.19L79.3113 410.318L-86.5758 362.977L-86.1895 362.603C-89.5098 361.494 -92.8076 360.3 -96.0722 359.011C-99.3367 357.723 -102.557 356.329 -105.745 354.862C-108.922 353.385 -112.066 351.834 -115.166 350.179C-118.267 348.523 -121.302 346.784 -124.305 344.972C-127.307 343.138 -130.245 341.242 -133.139 339.241C-136.022 337.251 -138.852 335.188 -141.627 333.031C-144.392 330.884 -147.113 328.653 -149.759 326.35C-152.405 324.047 -154.976 321.671 -157.493 319.222C-160 316.763 -162.431 314.251 -164.809 311.667C-167.175 309.073 -169.467 306.427 -171.684 303.708C-173.901 300.989 -176.054 298.208 -178.11 295.375C-180.177 292.532 -182.148 289.638 -184.055 286.681C-185.951 283.735 -187.762 280.727 -189.488 277.678C-191.213 274.629 -192.853 271.518 -194.398 268.376C-195.953 265.225 -197.412 262.042 -198.786 258.82C-200.16 255.576 -201.439 252.322 -202.622 249.018C-203.804 245.714 -204.902 242.369 -205.904 239.014C-206.896 235.65 -207.803 232.265 -208.603 228.84C-209.404 225.436 -210.12 221.992 -210.73 218.549C-211.34 215.085 -211.854 211.611 -212.263 208.14C-212.683 204.658 -212.996 201.156 -213.225 197.656C-213.433 194.156 -213.545 190.647 -213.573 187.139C-213.58 183.632 -213.503 180.126 -213.319 176.622C-213.147 173.128 -212.869 169.615 -212.496 166.135C-212.112 162.645 -211.633 159.166 -211.06 155.721C-210.487 152.255 -209.808 148.811 -209.045 145.391C-208.272 141.959 -207.404 138.561 -206.452 135.186C-205.489 131.821 -204.431 128.468 -203.269 125.159C-202.128 121.85 -200.881 118.563 -199.551 115.321C-198.199 112.078 -196.774 108.869 -195.255 105.713C-193.746 102.548 -192.133 99.4255 -190.446 96.3575C-188.738 93.2899 -186.967 90.2655 -185.103 87.2954C-183.238 84.3253 -181.279 81.4096 -179.247 78.5478C-177.215 75.6861 -175.11 72.8784 -172.911 70.1461C-170.722 67.4031 -168.471 64.7244 -166.116 62.1108C-163.781 59.4969 -161.374 56.9581 -158.884 54.4841C-156.393 52.01 -153.84 49.6003 -151.214 47.2658C-148.599 44.9416 -145.922 42.6818 -143.162 40.5079C-140.412 38.3232 -137.6 36.224 -134.736 34.1997C-131.872 32.1753 -128.947 30.2364 -125.97 28.3934C-122.992 26.5293 -119.964 24.7611 -116.884 23.0888C-113.804 21.3954 -110.683 19.8082 -107.511 18.2959C-104.349 16.7939 -101.136 15.3667 -97.8823 14.0458C-94.6389 12.7142 -91.355 11.4888 -88.041 10.3591C-84.7162 9.21888 -81.3716 8.16353 -77.9972 7.22485C-74.6122 6.27581 -71.218 5.42197 -67.7938 4.66368C-64.3695 3.90539 -60.915 3.24267 -57.4516 2.67517C-53.9989 2.11805 -50.516 1.6565 -47.0241 1.29016C-43.5322 0.92383 -40.0419 0.663089 -36.532 0.487202C-33.0327 0.32168 -29.5244 0.251399 -26.0179 0.286721C-22.5113 0.322045 -18.9957 0.452563 -15.5029 0.68838C-11.9994 0.913796 -8.50796 1.2341 -5.02896 1.67039C-1.53924 2.0963 1.92768 2.62747 5.3721 3.24279C8.82691 3.86884 12.2589 4.60017 15.6684 5.41564C19.0779 6.23111 22.4646 7.15185 25.8288 8.15673C29.193 9.16161 32.5133 10.2714 35.8111 11.4654C39.1192 12.6701 42.3627 13.9583 45.594 15.3413C48.8254 16.7243 52.0024 18.2016 55.1358 19.7626C58.2903 21.324 61.3802 22.9689 64.426 24.7186C67.4722 26.4473 70.4745 28.2809 73.4228 30.1876C76.3499 32.0939 79.2546 34.0844 82.0734 36.158C84.9133 38.2319 87.6782 40.3786 90.389 42.5984C93.0995 44.8393 95.7456 47.1425 98.3166 49.5184Z" fill="#2C2675"/>
</svg>
