<svg width="24" height="25" viewBox="0 0 24 25" fill="none" xmlns="http://www.w3.org/2000/svg">
<g id="Iconly/Bulk/Setting">
<g id="Setting">
<path id="Path" d="M12.012 14.8433C10.4075 14.8433 9.10962 13.5933 9.10962 12.0233C9.10962 10.4533 10.4075 9.19325 12.012 9.19325C13.6165 9.19325 14.8837 10.4533 14.8837 12.0233C14.8837 13.5933 13.6165 14.8433 12.012 14.8433Z" fill="#8A92A6"/>
<path id="Path_2" opacity="0.4" d="M21.23 14.3833C21.0358 14.0833 20.7599 13.7833 20.4022 13.5933C20.1161 13.4533 19.9321 13.2233 19.7686 12.9533C19.2474 12.0933 19.554 10.9633 20.4227 10.4533C21.4446 9.88325 21.7716 8.61325 21.1789 7.62325L20.4942 6.44325C19.9117 5.45325 18.6342 5.10325 17.6225 5.68325C16.7232 6.16325 15.5684 5.84325 15.0472 4.99325C14.8837 4.71325 14.7917 4.41325 14.8121 4.11325C14.8428 3.72325 14.7201 3.35325 14.5362 3.05325C14.1581 2.43325 13.4734 2.01325 12.7171 2.01325H11.2761C10.5301 2.03325 9.8454 2.43325 9.46728 3.05325C9.27311 3.35325 9.16069 3.72325 9.18113 4.11325C9.20157 4.41325 9.10959 4.71325 8.94608 4.99325C8.42488 5.84325 7.27007 6.16325 6.38097 5.68325C5.35901 5.10325 4.09178 5.45325 3.49905 6.44325L2.81434 7.62325C2.23182 8.61325 2.55885 9.88325 3.57059 10.4533C4.43925 10.9633 4.74584 12.0933 4.23486 12.9533C4.06112 13.2233 3.87717 13.4533 3.59102 13.5933C3.24356 13.7833 2.93697 14.0833 2.77346 14.3833C2.39533 15.0033 2.41577 15.7833 2.7939 16.4333L3.49905 17.6333C3.87717 18.2733 4.58232 18.6733 5.31813 18.6733C5.6656 18.6733 6.07438 18.5733 6.40141 18.3733C6.6569 18.2033 6.96348 18.1433 7.30073 18.1433C8.31247 18.1433 9.16069 18.9733 9.18113 19.9633C9.18113 21.1133 10.1213 22.0133 11.3068 22.0133H12.6967C13.8719 22.0133 14.8121 21.1133 14.8121 19.9633C14.8428 18.9733 15.691 18.1433 16.7027 18.1433C17.0298 18.1433 17.3364 18.2033 17.6021 18.3733C17.9291 18.5733 18.3277 18.6733 18.6853 18.6733C19.4109 18.6733 20.1161 18.2733 20.4942 17.6333L21.2096 16.4333C21.5775 15.7633 21.6081 15.0033 21.23 14.3833Z" fill="#8A92A6"/>
</g>
</g>
</svg>
